<mxfile host="app.diagrams.net" modified="2024-09-25T04:42:06.513Z" agent="Mozilla/5.0 (Windows NT 10.0; Win64; x64) AppleWebKit/537.36 (KHTML, like Gecko) Chrome/101.0.0.0 Safari/537.36" etag="YdY2zRK51zAOPMRcP6EK" version="24.5.2" type="github">
  <diagram name="Trang-1" id="mxdWTtmPd_q35_Jz-65F">
    <mxGraphModel dx="1434" dy="796" grid="1" gridSize="10" guides="1" tooltips="1" connect="0" arrows="1" fold="1" page="1" pageScale="1" pageWidth="827" pageHeight="1169" math="0" shadow="0">
      <root>
        <mxCell id="0" />
        <mxCell id="1" parent="0" />
        <mxCell id="ZhRvSujYT5dmZntndv8J-34" value="" style="rounded=1;whiteSpace=wrap;html=1;" vertex="1" parent="1">
          <mxGeometry x="424.99" y="640" width="320" height="300" as="geometry" />
        </mxCell>
        <mxCell id="ZhRvSujYT5dmZntndv8J-2" value="" style="image;points=[];aspect=fixed;html=1;align=center;shadow=0;dashed=0;image=img/lib/allied_telesis/computer_and_terminals/Server_Desktop.svg;" vertex="1" parent="1">
          <mxGeometry x="280" y="700" width="47.33" height="60" as="geometry" />
        </mxCell>
        <mxCell id="ZhRvSujYT5dmZntndv8J-3" value="" style="image;points=[];aspect=fixed;html=1;align=center;shadow=0;dashed=0;image=img/lib/allied_telesis/computer_and_terminals/Server_Desktop.svg;" vertex="1" parent="1">
          <mxGeometry x="110" y="700" width="47.33" height="60" as="geometry" />
        </mxCell>
        <mxCell id="ZhRvSujYT5dmZntndv8J-4" value="" style="image;points=[];aspect=fixed;html=1;align=center;shadow=0;dashed=0;image=img/lib/allied_telesis/computer_and_terminals/Server_Desktop.svg;" vertex="1" parent="1">
          <mxGeometry x="193.16" y="700" width="47.33" height="60" as="geometry" />
        </mxCell>
        <mxCell id="ZhRvSujYT5dmZntndv8J-11" value="" style="shape=image;html=1;verticalAlign=top;verticalLabelPosition=bottom;labelBackgroundColor=#ffffff;imageAspect=0;aspect=fixed;image=https://cdn4.iconfinder.com/data/icons/socialcones/508/Gitlab-128.png" vertex="1" parent="1">
          <mxGeometry x="529.99" y="341" width="110" height="110" as="geometry" />
        </mxCell>
        <mxCell id="ZhRvSujYT5dmZntndv8J-12" value="" style="shape=image;verticalLabelPosition=bottom;labelBackgroundColor=default;verticalAlign=top;aspect=fixed;imageAspect=0;image=https://gitlab.com/uploads/-/system/project/avatar/41490860/runner_logo.png;" vertex="1" parent="1">
          <mxGeometry x="172.67" y="350" width="101" height="101" as="geometry" />
        </mxCell>
        <mxCell id="ZhRvSujYT5dmZntndv8J-13" value="&lt;font style=&quot;font-size: 18px;&quot;&gt;VIP&lt;br&gt;172.21.5.31&lt;/font&gt;" style="text;strokeColor=none;fillColor=none;html=1;fontSize=24;fontStyle=1;verticalAlign=middle;align=center;" vertex="1" parent="1">
          <mxGeometry x="189.08" y="620" width="66.84" height="20" as="geometry" />
        </mxCell>
        <mxCell id="ZhRvSujYT5dmZntndv8J-15" value="" style="shape=curlyBracket;whiteSpace=wrap;html=1;rounded=1;labelPosition=left;verticalLabelPosition=middle;align=right;verticalAlign=middle;size=0;rotation=90;" vertex="1" parent="1">
          <mxGeometry x="212.5" y="592.5" width="20" height="175" as="geometry" />
        </mxCell>
        <mxCell id="ZhRvSujYT5dmZntndv8J-16" value="" style="shape=singleArrow;direction=south;whiteSpace=wrap;html=1;" vertex="1" parent="1">
          <mxGeometry x="193.16" y="480" width="60" height="105" as="geometry" />
        </mxCell>
        <mxCell id="ZhRvSujYT5dmZntndv8J-18" value="Worker Node" style="text;html=1;align=center;verticalAlign=middle;whiteSpace=wrap;rounded=0;" vertex="1" parent="1">
          <mxGeometry x="166.37" y="670" width="100.92" height="30" as="geometry" />
        </mxCell>
        <mxCell id="ZhRvSujYT5dmZntndv8J-19" value="172.21.5.41" style="text;html=1;align=center;verticalAlign=middle;whiteSpace=wrap;rounded=0;" vertex="1" parent="1">
          <mxGeometry x="97.32999999999998" y="767.5" width="60" height="30" as="geometry" />
        </mxCell>
        <mxCell id="ZhRvSujYT5dmZntndv8J-20" value="172.21.5.42" style="text;html=1;align=center;verticalAlign=middle;whiteSpace=wrap;rounded=0;" vertex="1" parent="1">
          <mxGeometry x="186.82999999999998" y="767.5" width="60" height="30" as="geometry" />
        </mxCell>
        <mxCell id="ZhRvSujYT5dmZntndv8J-21" value="172.21.5.43" style="text;html=1;align=center;verticalAlign=middle;whiteSpace=wrap;rounded=0;" vertex="1" parent="1">
          <mxGeometry x="273.66999999999996" y="767.5" width="60" height="30" as="geometry" />
        </mxCell>
        <mxCell id="ZhRvSujYT5dmZntndv8J-22" value="" style="image;points=[];aspect=fixed;html=1;align=center;shadow=0;dashed=0;image=img/lib/allied_telesis/computer_and_terminals/Server_Desktop.svg;" vertex="1" parent="1">
          <mxGeometry x="648.1600000000001" y="700" width="47.33" height="60" as="geometry" />
        </mxCell>
        <mxCell id="ZhRvSujYT5dmZntndv8J-23" value="" style="image;points=[];aspect=fixed;html=1;align=center;shadow=0;dashed=0;image=img/lib/allied_telesis/computer_and_terminals/Server_Desktop.svg;" vertex="1" parent="1">
          <mxGeometry x="478.16" y="700" width="47.33" height="60" as="geometry" />
        </mxCell>
        <mxCell id="ZhRvSujYT5dmZntndv8J-24" value="" style="image;points=[];aspect=fixed;html=1;align=center;shadow=0;dashed=0;image=img/lib/allied_telesis/computer_and_terminals/Server_Desktop.svg;" vertex="1" parent="1">
          <mxGeometry x="561.32" y="700" width="47.33" height="60" as="geometry" />
        </mxCell>
        <mxCell id="ZhRvSujYT5dmZntndv8J-25" value="172.21.5.44" style="text;html=1;align=center;verticalAlign=middle;whiteSpace=wrap;rounded=0;" vertex="1" parent="1">
          <mxGeometry x="465.49" y="767.5" width="60" height="30" as="geometry" />
        </mxCell>
        <mxCell id="ZhRvSujYT5dmZntndv8J-26" value="172.21.5.45" style="text;html=1;align=center;verticalAlign=middle;whiteSpace=wrap;rounded=0;" vertex="1" parent="1">
          <mxGeometry x="554.99" y="767.5" width="60" height="30" as="geometry" />
        </mxCell>
        <mxCell id="ZhRvSujYT5dmZntndv8J-27" value="172.21.5.46" style="text;html=1;align=center;verticalAlign=middle;whiteSpace=wrap;rounded=0;" vertex="1" parent="1">
          <mxGeometry x="641.8299999999999" y="767.5" width="60" height="30" as="geometry" />
        </mxCell>
        <mxCell id="ZhRvSujYT5dmZntndv8J-28" value="" style="image;points=[];aspect=fixed;html=1;align=center;shadow=0;dashed=0;image=img/lib/allied_telesis/computer_and_terminals/Server_Desktop.svg;" vertex="1" parent="1">
          <mxGeometry x="521.58" y="810" width="47.33" height="60" as="geometry" />
        </mxCell>
        <mxCell id="ZhRvSujYT5dmZntndv8J-29" value="" style="image;points=[];aspect=fixed;html=1;align=center;shadow=0;dashed=0;image=img/lib/allied_telesis/computer_and_terminals/Server_Desktop.svg;" vertex="1" parent="1">
          <mxGeometry x="604.74" y="810" width="47.33" height="60" as="geometry" />
        </mxCell>
        <mxCell id="ZhRvSujYT5dmZntndv8J-30" value="172.21.5.139" style="text;html=1;align=center;verticalAlign=middle;whiteSpace=wrap;rounded=0;" vertex="1" parent="1">
          <mxGeometry x="508.91" y="877.5" width="60" height="30" as="geometry" />
        </mxCell>
        <mxCell id="ZhRvSujYT5dmZntndv8J-31" value="172.21.5.140" style="text;html=1;align=center;verticalAlign=middle;whiteSpace=wrap;rounded=0;" vertex="1" parent="1">
          <mxGeometry x="598.41" y="877.5" width="60" height="30" as="geometry" />
        </mxCell>
        <mxCell id="ZhRvSujYT5dmZntndv8J-32" value="" style="shape=singleArrow;direction=south;whiteSpace=wrap;html=1;rotation=-180;" vertex="1" parent="1">
          <mxGeometry x="554.99" y="480" width="60" height="105" as="geometry" />
        </mxCell>
        <mxCell id="ZhRvSujYT5dmZntndv8J-36" value="oauth2.googleapis.com&lt;div&gt;api.openweathermap.org&lt;/div&gt;&lt;div&gt;smtp.viettel.com.vn&lt;br&gt;&lt;/div&gt;" style="shape=note;whiteSpace=wrap;html=1;backgroundOutline=1;darkOpacity=0.05;" vertex="1" parent="1">
          <mxGeometry x="110" y="820" width="170" height="165" as="geometry" />
        </mxCell>
        <mxCell id="ZhRvSujYT5dmZntndv8J-39" value="&lt;font style=&quot;font-size: 14px;&quot;&gt;Cần mở kết nối&lt;/font&gt;" style="text;strokeColor=none;fillColor=none;html=1;fontSize=24;fontStyle=1;verticalAlign=middle;align=center;" vertex="1" parent="1">
          <mxGeometry x="246.83" y="500" width="83.17" height="30" as="geometry" />
        </mxCell>
        <mxCell id="ZhRvSujYT5dmZntndv8J-42" value="&lt;font style=&quot;font-size: 14px;&quot;&gt;Cần mở kết nối&lt;/font&gt;" style="text;strokeColor=none;fillColor=none;html=1;fontSize=24;fontStyle=1;verticalAlign=middle;align=center;" vertex="1" parent="1">
          <mxGeometry x="612.32" y="517.5" width="83.17" height="30" as="geometry" />
        </mxCell>
        <mxCell id="ZhRvSujYT5dmZntndv8J-44" value="" style="shape=flexArrow;endArrow=classic;html=1;rounded=0;" edge="1" parent="1">
          <mxGeometry width="50" height="50" relative="1" as="geometry">
            <mxPoint x="410" y="880" as="sourcePoint" />
            <mxPoint x="290" y="880" as="targetPoint" />
          </mxGeometry>
        </mxCell>
        <mxCell id="ZhRvSujYT5dmZntndv8J-45" value="&lt;font style=&quot;font-size: 14px;&quot;&gt;Cần mở kết nối&lt;/font&gt;" style="text;strokeColor=none;fillColor=none;html=1;fontSize=24;fontStyle=1;verticalAlign=middle;align=center;" vertex="1" parent="1">
          <mxGeometry x="310.00000000000006" y="900" width="83.17" height="30" as="geometry" />
        </mxCell>
        <mxCell id="ZhRvSujYT5dmZntndv8J-46" value="" style="endArrow=classic;html=1;rounded=0;exitX=-0.036;exitY=0.536;exitDx=0;exitDy=0;exitPerimeter=0;entryX=0.983;entryY=0.515;entryDx=0;entryDy=0;entryPerimeter=0;" edge="1" parent="1" source="ZhRvSujYT5dmZntndv8J-11" target="ZhRvSujYT5dmZntndv8J-12">
          <mxGeometry width="50" height="50" relative="1" as="geometry">
            <mxPoint x="406.0299999999999" y="297.02" as="sourcePoint" />
            <mxPoint x="319.99999999999994" y="503.98" as="targetPoint" />
          </mxGeometry>
        </mxCell>
        <mxCell id="ZhRvSujYT5dmZntndv8J-47" value="&lt;span style=&quot;font-size: 14pt; line-height: 151%; font-family: &amp;quot;Times New Roman&amp;quot;, serif;&quot;&gt;172.20.1.12&lt;/span&gt;" style="text;html=1;align=center;verticalAlign=middle;whiteSpace=wrap;rounded=0;" vertex="1" parent="1">
          <mxGeometry x="554.99" y="300" width="60" height="30" as="geometry" />
        </mxCell>
        <mxCell id="ZhRvSujYT5dmZntndv8J-48" value="&lt;span style=&quot;font-size: 14pt; line-height: 151%; font-family: &amp;quot;Times New Roman&amp;quot;, serif;&quot;&gt;172.20.1.21&lt;/span&gt;" style="text;html=1;align=center;verticalAlign=middle;whiteSpace=wrap;rounded=0;" vertex="1" parent="1">
          <mxGeometry x="192.5" y="300" width="60" height="30" as="geometry" />
        </mxCell>
      </root>
    </mxGraphModel>
  </diagram>
</mxfile>
